<?xml version="1.0" encoding="utf-8"?>
<!-- Generator: Adobe Illustrator 27.6.1, SVG Export Plug-In . SVG Version: 6.00 Build 0)  -->
<svg version="1.1"
	 id="svg8" xmlns:svg="http://www.w3.org/2000/svg" xmlns:inkscape="http://www.inkscape.org/namespaces/inkscape" xmlns:cc="http://creativecommons.org/ns#" xmlns:dc="http://purl.org/dc/elements/1.1/" xmlns:rdf="http://www.w3.org/1999/02/22-rdf-syntax-ns#" xmlns:sodipodi="http://sodipodi.sourceforge.net/DTD/sodipodi-0.dtd"
	 xmlns="http://www.w3.org/2000/svg" xmlns:xlink="http://www.w3.org/1999/xlink" x="0px" y="0px" viewBox="0 0 500 324.5"
	 style="enable-background:new 0 0 500 324.5;" xml:space="preserve">
<style type="text/css">
	.st0{fill:#2933A3;}
</style>
<sodipodi:namedview  bordercolor="#666666" borderopacity="1.0" fit-margin-bottom="0" fit-margin-left="0" fit-margin-right="0" fit-margin-top="0" id="base" inkscape:current-layer="layer1" inkscape:cx="-111.42851" inkscape:cy="182.22521" inkscape:document-units="mm" inkscape:pageopacity="0.0" inkscape:pageshadow="2" inkscape:window-height="706" inkscape:window-maximized="1" inkscape:window-width="1366" inkscape:window-x="-8" inkscape:window-y="-8" inkscape:zoom="0.35" pagecolor="#ffffff" showgrid="false" units="px">
	</sodipodi:namedview>
<g id="g10397" transform="matrix(0.35277777,0,0,-0.35277777,13.839332,306.13541)">
	<g>
		<g>
			<path class="st0" d="M668.9,867.8c-390.3,0-708.6-206.6-708.6-459.9c0-253.2,318.3-459.8,708.6-459.8
				c390.4,0,708.7,206.6,708.7,459.8C1377.5,661.2,1059.3,867.8,668.9,867.8z M1174.3,332.9c-28.3-0.4-53.5,4.2-71.2,8.7
				c-60.5,15.4-96.9,59.1-174.4,44.7c-25.5-4.7-67-33.9-81.3-70.9c-27.3-70.7-15.7-169.6-131.1-172.2
				c-57.8-1.3-94.7,25.2-108.6,55.3c-14.5,31.3-19.2,76.4,3,102.7c13.3,15.8,38.2,41.4,72.3,20c45.1-28.4-37.1-21.3-6.3-62.1
				c20.7-27.4,57.6-9.9,71.3,7.1c17.6,21.8,18.5,64.2-3.2,82C614.7,454.7,556.1,297.9,459.6,299c-175.2,2-193.5,97.4-294.1,108.4
				C54.1,419.5,62.7,376.6,12.7,386.4c33.5,70.8,92.2,91.9,153.6,91.4c124.9-0.8,126.8-69.7,220.5-56.5c26.1,3.6,59.8,20.7,75.9,52
				c33.8,65.2,19.4,148.2,103.1,191c29.5,15.1,118.5,12.3,148-43.3c9.9-18.7,26.3-65.9,4.2-108.7c-5.3-10.3-24.4-27.9-44.1-31.5
				c-15.3-2.8-51.8-12.6-47.7,31c35.8-9.8,32.7,36.2,25.6,46.8c-7.2,10.6-29.6,18.3-44.2,9.8c-53.7-31.6-56.9-82.3-20.3-115
				c13.7-12.1,17.2-23.4,59.4-24.2c66.8-1.3,86.4,19.7,119.7,41.6c29.4,19.4,57.1,38.6,92.6,41c79.8,5.3,141.9-27.7,194.9-61.4
				c62.1-39.5,132.7-78.9,234.5-41.9c22,8,46.8,8.2,30.2-11.1C1280.5,353.3,1221.3,333.4,1174.3,332.9z"/>
		</g>
	</g>
</g>
</svg>
